<svg width="21" height="20" viewBox="0 0 21 20" fill="none" xmlns="http://www.w3.org/2000/svg">
<path fill-rule="evenodd" clip-rule="evenodd" d="M2.5 0H18.5C19.6 0 20.5 0.9 20.5 2V18C20.5 19.1 19.6 20 18.5 20H2.5C1.4 20 0.5 19.1 0.5 18V2C0.5 0.9 1.4 0 2.5 0ZM6.5 17V8H3.5V17H6.5ZM5 6.3C4 6.3 3.2 5.5 3.2 4.5C3.2 3.5 4 2.7 5 2.7C6 2.7 6.8 3.5 6.8 4.5C6.8 5.5 6 6.3 5 6.3ZM14.5 17H17.5V11.3C17.5 9.4 15.9 7.8 14 7.8C13.1 7.8 12 8.4 11.5 9.2V8H8.5V17H11.5V11.7C11.5 10.9 12.2 10.2 13 10.2C13.8 10.2 14.5 10.9 14.5 11.7V17Z" fill="white"/>
</svg>
