<svg width="25" height="20" viewBox="0 0 25 20" fill="none" xmlns="http://www.w3.org/2000/svg">
<path d="M24.5 2.309C23.617 2.701 22.668 2.965 21.672 3.084C22.689 2.475 23.47 1.51 23.837 0.36C22.886 0.924 21.832 1.334 20.71 1.555C19.813 0.598 18.532 0 17.116 0C13.937 0 11.601 2.966 12.319 6.045C8.228 5.84 4.6 3.88 2.171 0.901C0.881 3.114 1.502 6.009 3.694 7.475C2.888 7.449 2.128 7.228 1.465 6.859C1.411 9.14 3.046 11.274 5.414 11.749C4.721 11.937 3.962 11.981 3.19 11.833C3.816 13.789 5.634 15.212 7.79 15.252C5.72 16.875 3.112 17.6 0.5 17.292C2.679 18.689 5.268 19.504 8.048 19.504C17.19 19.504 22.355 11.783 22.043 4.858C23.005 4.163 23.84 3.296 24.5 2.309Z" fill="white"/>
</svg>
